<svg xmlns="http://www.w3.org/2000/svg" viewBox="0 0 1024 1024">
  <defs>
    <!-- Relief gradient: lighter top, richer bottom -->
    <linearGradient id="bgGrad" x1="0" y1="0" x2="0" y2="1">
      <stop offset="0%"   stop-color="#FFD740"/>
      <stop offset="100%" stop-color="#F0B400"/>
    </linearGradient>
    <!-- Radial highlight at top-center (iOS gloss effect) -->
    <radialGradient id="gloss" cx="50%" cy="0%" r="70%" fx="50%" fy="0%">
      <stop offset="0%"   stop-color="#ffffff" stop-opacity="0.28"/>
      <stop offset="100%" stop-color="#ffffff" stop-opacity="0"/>
    </radialGradient>
    <!-- Subtle inner shadow at bottom -->
    <linearGradient id="innerShadow" x1="0" y1="0" x2="0" y2="1">
      <stop offset="60%"  stop-color="#000000" stop-opacity="0"/>
      <stop offset="100%" stop-color="#000000" stop-opacity="0.12"/>
    </linearGradient>
    <!-- Drop shadow for the logo mark -->
    <filter id="logoShadow" x="-10%" y="-10%" width="120%" height="130%">
      <feDropShadow dx="0" dy="3" stdDeviation="6" flood-color="#000000" flood-opacity="0.18"/>
    </filter>
  </defs>

  <!-- Background: yellow rounded square -->
  <rect width="1024" height="1024" rx="225" ry="225" fill="url(#bgGrad)"/>
  <!-- Gloss highlight overlay -->
  <rect width="1024" height="1024" rx="225" ry="225" fill="url(#gloss)"/>
  <!-- Inner shadow at bottom -->
  <rect width="1024" height="1024" rx="225" ry="225" fill="url(#innerShadow)"/>

  <!-- WAVE logo — dark, centered, with drop shadow for depth -->
  <!-- Content bbox in original coords: x 59-141 (w=82), y 36-170 (h=134), center at (100,103) -->
  <!-- Scale 6×: logo 492×804px; translate so center(100,103) maps to (512,512) -->
  <g transform="translate(-88, -106) scale(6)" filter="url(#logoShadow)">
    <!-- Mic capsule (U-shape) -->
    <path d="M 87 36 L 87 108 A 13 13 0 0 1 113 108 L 113 36"
          stroke="#1C1C1E" stroke-width="10" fill="none"
          stroke-linecap="round" stroke-linejoin="round"/>
    <!-- Mic stem -->
    <line x1="100" y1="121" x2="100" y2="170"
          stroke="#1C1C1E" stroke-width="10" stroke-linecap="round"/>
    <!-- Sound waves — left -->
    <line x1="59" y1="57"  x2="79" y2="57"  stroke="#1C1C1E" stroke-width="4" stroke-linecap="round"/>
    <line x1="62" y1="75"  x2="79" y2="75"  stroke="#1C1C1E" stroke-width="4" stroke-linecap="round"/>
    <line x1="67" y1="93"  x2="79" y2="93"  stroke="#1C1C1E" stroke-width="4" stroke-linecap="round"/>
    <!-- Sound waves — right -->
    <line x1="121" y1="57"  x2="141" y2="57"  stroke="#1C1C1E" stroke-width="4" stroke-linecap="round"/>
    <line x1="121" y1="75"  x2="138" y2="75"  stroke="#1C1C1E" stroke-width="4" stroke-linecap="round"/>
    <line x1="121" y1="93"  x2="133" y2="93"  stroke="#1C1C1E" stroke-width="4" stroke-linecap="round"/>
  </g>
</svg>
